<svg xmlns="http://www.w3.org/2000/svg" viewBox="0 0 128 128" width="128" height="128">
  <!-- Fundo amarelo -->
  <rect width="128" height="128" rx="8" fill="#F7DF1E"/>
  <!-- Letras JS -->
  <path d="M26 114.6l8.6-5.2c1.7 2.8 3.2 5.2 6.8 5.2 3.5 0 5.7-1.4 5.7-6.7V72.7h10.6v35.5c0 11-6.4 16-15.8 16-8.5 0-13.4-4.4-15.9-9.6z" fill="#323330"/>
  <path d="M67.5 113.7l8.6-5c2.3 3.7 5.2 6.4 10.5 6.4 4.4 0 7.2-2.2 7.2-5.3 0-3.7-2.9-5-7.8-7.1l-2.7-1.2c-7.7-3.3-12.9-7.4-12.9-16.1 0-8 6.1-14.1 15.6-14.1 6.8 0 11.6 2.4 15.1 8.6l-8.3 5.3c-1.8-3.2-3.8-4.5-6.8-4.5-3.1 0-5.1 2-5.1 4.5 0 3.1 2 4.4 6.6 6.3l2.7 1.2c9.1 3.9 14.3 7.9 14.3 16.8 0 9.6-7.5 14.9-17.7 14.9-9.9 0-16.3-4.7-19.4-10.7z" fill="#323330"/>
</svg>
